<svg width="525" height="272" viewBox="0 0 525 272" fill="none" xmlns="http://www.w3.org/2000/svg">
<path opacity="0.2" d="M525 20C525 8.95431 516.046 0 505 0H129C57.7553 0 0 57.7553 0 129V245C0 256.046 8.95431 265 20 265H505C516.046 265 525 256.046 525 245V20Z" fill="#3B87B2"/>
<g opacity="0.1">
<mask id="mask0_3152_2158" style="mask-type:alpha" maskUnits="userSpaceOnUse" x="16" y="59" width="405" height="206">
<rect x="420.5" y="59.5" width="205" height="404" rx="38.5" transform="rotate(90 420.5 59.5)" fill="url(#paint0_linear_3152_2158)" stroke="#3B87B2"/>
</mask>
<g mask="url(#mask0_3152_2158)">
<path d="M154.809 228.121C154.809 263.297 126.333 291.812 91.2083 291.812C56.0838 291.812 27.6087 263.297 27.6087 228.121C27.609 192.945 56.0839 164.431 91.2083 164.431C126.333 164.431 154.809 192.945 154.809 228.121Z" stroke="#3B87B2"/>
<path d="M169.147 223.054C169.147 262.428 137.273 294.346 97.9557 294.346C58.639 294.346 26.7655 262.428 26.7653 223.054C26.7653 183.68 58.6389 151.761 97.9557 151.761C137.273 151.761 169.147 183.68 169.147 223.054Z" stroke="#3B87B2"/>
<path d="M181.377 218.831C181.377 261.937 146.482 296.88 103.438 296.88C60.3949 296.88 25.5 261.937 25.4998 218.831C25.4998 175.725 60.3948 140.781 103.438 140.781C146.482 140.781 181.377 175.725 181.377 218.831Z" stroke="#3B87B2"/>
<path d="M195.293 214.608C195.293 260.979 157.755 298.57 111.451 298.57C65.1467 298.57 27.609 260.979 27.6089 214.608C27.6089 168.237 65.1467 130.646 111.451 130.646C157.755 130.646 195.293 168.236 195.293 214.608Z" stroke="#3B87B2"/>
<path d="M208.788 210.596C208.788 260.116 168.701 300.259 119.253 300.259C69.8046 300.259 29.7169 260.116 29.7168 210.596C29.7168 161.076 69.8046 120.933 119.253 120.933C168.701 120.933 208.788 161.076 208.788 210.596Z" stroke="#3B87B2"/>
<path d="M226.5 203.839C226.5 258.257 182.448 302.37 128.108 302.37C73.7691 302.37 29.7168 258.257 29.7168 203.839C29.7168 149.421 73.7691 105.308 128.108 105.308C182.448 105.308 226.5 149.421 226.5 203.839Z" stroke="#3B87B2"/>
</g>
</g>
<path d="M74.0196 264.767V266.636H84.7403V264.767H74.0196ZM78.3809 260.202V271.588H80.3682V260.202H78.3809Z" fill="white"/>
<path d="M56.7305 247.478V249.347H67.4512V247.478H56.7305ZM61.0918 242.912V254.299H63.0791V242.912H61.0918Z" fill="white"/>
<path d="M39.4413 195.61V197.479H50.162V195.61H39.4413ZM43.8027 191.045V202.432H45.79V191.045H43.8027Z" fill="white"/>
<path d="M39.4413 212.899V214.769H50.162V212.899H39.4413ZM43.8027 208.334V219.721H45.79V208.334H43.8027Z" fill="white"/>
<path d="M39.4413 230.188V232.058H50.162V230.188H39.4413ZM43.8027 225.623V237.01H45.79V225.623H43.8027Z" fill="#3B87B2"/>
<path d="M39.4413 247.478V249.347H50.162V247.478H39.4413ZM43.8027 242.912V254.299H45.79V242.912H43.8027Z" fill="white"/>
<path d="M39.4413 264.767V266.636H50.162V264.767H39.4413ZM43.8027 260.202V271.588H45.79V260.202H43.8027Z" fill="white"/>
<path d="M22.1522 195.61V197.479H32.8729V195.61H22.1522ZM26.5135 191.045V202.432H28.5008V191.045H26.5135Z" fill="white"/>
<path d="M22.1522 212.899V214.769H32.8729V212.899H22.1522ZM26.5135 208.334V219.721H28.5008V208.334H26.5135Z" fill="white"/>
<path d="M22.1522 230.188V232.058H32.8729V230.188H22.1522ZM26.5135 225.623V237.01H28.5008V225.623H26.5135Z" fill="white"/>
<path d="M22.1522 247.478V249.347H32.8729V247.478H22.1522ZM26.5135 242.912V254.299H28.5008V242.912H26.5135Z" fill="white"/>
<path d="M22.1522 264.767V266.636H32.8729V264.767H22.1522ZM26.5135 260.202V271.588H28.5008V260.202H26.5135Z" fill="white"/>
<path d="M4.86308 195.61V197.479H15.5838V195.61H4.86308ZM9.22441 191.045V202.432H11.2117V191.045H9.22441Z" fill="#D22828"/>
<path d="M4.86308 212.899V214.769H15.5838V212.899H4.86308ZM9.22441 208.334V219.721H11.2117V208.334H9.22441Z" fill="white"/>
<path d="M4.86308 230.188V232.058H15.5838V230.188H4.86308ZM9.22441 225.623V237.01H11.2117V225.623H9.22441Z" fill="white"/>
<path d="M4.86308 247.478V249.347H15.5838V247.478H4.86308ZM9.22441 242.912V254.299H11.2117V242.912H9.22441Z" fill="white"/>
<path d="M4.86308 264.767V266.636H15.5838V264.767H4.86308ZM9.22441 260.202V271.588H11.2117V260.202H9.22441Z" fill="white"/>
<g opacity="0.1">
<mask id="mask1_3152_2158" style="mask-type:alpha" maskUnits="userSpaceOnUse" x="367" y="16" width="158" height="210">
<path d="M500.715 16.5C513.693 16.5002 524.215 27.0215 524.215 40V225.5H417C389.662 225.5 367.5 203.338 367.5 176V16.5H500.715Z" fill="url(#paint1_linear_3152_2158)" stroke="#3B87B2"/>
</mask>
<g mask="url(#mask1_3152_2158)">
<path d="M509.789 67.8867C539.967 67.8869 564.43 92.3512 564.43 122.529C564.43 152.707 539.966 177.172 509.789 177.172C479.611 177.172 455.146 152.707 455.146 122.529C455.146 92.3511 479.61 67.8867 509.789 67.8867Z" stroke="#3B87B2"/>
<circle cx="505.435" cy="116.725" r="61.1723" stroke="#3B87B2"/>
<circle cx="501.807" cy="112.008" r="66.9767" stroke="#3B87B2"/>
<circle cx="498.18" cy="105.116" r="72.0556" stroke="#3B87B2"/>
<circle cx="494.733" cy="98.4043" r="76.9531" stroke="#3B87B2"/>
<circle cx="488.929" cy="90.7859" r="84.5715" stroke="#3B87B2"/>
</g>
</g>
<circle cx="491.5" cy="34.5" r="18.5" fill="url(#paint2_linear_3152_2158)"/>
<path d="M500.808 28.6805C501.174 29.3134 501.125 30.067 500.68 30.6471L490.915 43.3894C490.513 43.9149 489.85 44.1828 489.172 44.0526C488.508 43.9249 487.981 43.4409 487.798 42.79L486.354 37.6477L486.203 37.1128L485.815 36.7151L482.084 32.8927C481.612 32.409 481.456 31.7111 481.677 31.0722C481.896 30.4407 482.446 29.9824 483.124 29.8936L499.041 27.8083C499.766 27.7132 500.443 28.0476 500.808 28.6805Z" fill="white"/>
<path d="M486.354 37.648L487.798 42.7903C487.981 43.4413 488.508 43.9252 489.172 44.0529C489.85 44.1831 490.513 43.9152 490.915 43.3897L500.68 30.6474C501.125 30.0673 501.174 29.3137 500.808 28.6808L486.203 37.1131L486.354 37.648Z" fill="white"/>
<path d="M492.147 33.6817C492.295 33.939 492.207 34.2684 491.949 34.4172L486.354 37.6479L486.203 37.1131L485.815 36.7153L491.411 33.4846C491.669 33.3358 491.998 33.4243 492.147 33.6817Z" fill="#F0BC22"/>
<path d="M486.354 37.6479L491.949 34.4172C492.207 34.2684 492.295 33.9391 492.147 33.6817L486.203 37.1131L486.354 37.6479Z" fill="#F0BC22"/>
<defs>
<linearGradient id="paint0_linear_3152_2158" x1="567.103" y1="70.3627" x2="320.905" y2="385.901" gradientUnits="userSpaceOnUse">
<stop stop-color="#747DEF"/>
<stop offset="1" stop-color="#5E3BE1"/>
</linearGradient>
<linearGradient id="paint1_linear_3152_2158" x1="478.857" y1="21.8918" x2="370.126" y2="227.652" gradientUnits="userSpaceOnUse">
<stop stop-color="#747DEF"/>
<stop offset="1" stop-color="#5E3BE1"/>
</linearGradient>
<linearGradient id="paint2_linear_3152_2158" x1="499.242" y1="17.0381" x2="483.341" y2="57.104" gradientUnits="userSpaceOnUse">
<stop stop-color="#FFBF00"/>
<stop offset="1" stop-color="#F0BC22"/>
</linearGradient>
</defs>
</svg>
