<svg width="1170" height="407" viewBox="0 0 1170 407" fill="none" xmlns="http://www.w3.org/2000/svg">
<path opacity="0.2" d="M1170 20C1170 8.9543 1161.05 0 1150 0H129C57.7552 0 0 57.7553 0 129V387C0 398.046 8.95435 407 20 407H1150C1161.05 407 1170 398.046 1170 387V20Z" fill="#3B87B2"/>
<g opacity="0.1">
<mask id="mask0_2922_512" style="mask-type:alpha" maskUnits="userSpaceOnUse" x="906" y="0" width="264" height="352">
<path d="M1146 0.5C1158.98 0.5 1169.5 11.0213 1169.5 24V351.021H956C928.662 351.021 906.5 328.86 906.5 301.521V0.5H1146Z" fill="url(#paint0_linear_2922_512)" stroke="#3B87B2"/>
</mask>
<g mask="url(#mask0_2922_512)">
<path d="M1145.02 86.5168C1195.72 86.517 1236.82 127.619 1236.82 178.321C1236.82 229.022 1195.72 270.124 1145.02 270.124C1094.31 270.124 1053.21 229.022 1053.21 178.321C1053.21 127.619 1094.31 86.5168 1145.02 86.5168Z" stroke="#3B87B2"/>
<circle cx="1137.73" cy="168.604" r="102.734" stroke="#3B87B2"/>
<circle cx="1131.66" cy="160.71" r="112.45" stroke="#3B87B2"/>
<circle cx="1125.58" cy="149.171" r="120.952" stroke="#3B87B2"/>
<circle cx="1119.81" cy="137.937" r="129.15" stroke="#3B87B2"/>
<circle cx="1110.1" cy="125.185" r="141.902" stroke="#3B87B2"/>
</g>
</g>
<g opacity="0.1">
<mask id="mask1_2922_512" style="mask-type:alpha" maskUnits="userSpaceOnUse" x="0" y="58" width="463" height="349">
<rect x="462.5" y="59.2854" width="347.215" height="462" transform="rotate(90 462.5 59.2854)" fill="url(#paint1_linear_2922_512)" stroke="#3B87B2"/>
</mask>
<g mask="url(#mask1_2922_512)">
<path d="M349.205 375.364C349.204 442.328 294.997 496.611 228.129 496.611C161.262 496.611 107.053 442.328 107.053 375.364C107.053 308.4 161.262 254.116 228.129 254.116C294.997 254.116 349.205 308.401 349.205 375.364Z" stroke="#3B87B2"/>
<path d="M376.399 365.752C376.399 440.678 315.745 501.417 240.927 501.417C166.108 501.417 105.454 440.678 105.454 365.752C105.454 290.826 166.108 230.087 240.927 230.087C315.745 230.087 376.399 290.826 376.399 365.752Z" stroke="#3B87B2"/>
<path d="M399.594 357.742C399.594 439.747 333.21 506.223 251.324 506.223C169.437 506.223 103.054 439.747 103.054 357.742C103.054 275.738 169.438 209.262 251.324 209.262C333.21 209.262 399.594 275.738 399.594 357.742Z" stroke="#3B87B2"/>
<path d="M425.989 349.733C425.989 437.93 354.593 509.427 266.522 509.427C178.451 509.427 107.054 437.93 107.054 349.733C107.054 261.536 178.451 190.039 266.522 190.039C354.593 190.039 425.989 261.536 425.989 349.733Z" stroke="#3B87B2"/>
<path d="M451.584 342.123C451.584 436.292 375.353 512.631 281.318 512.631C187.284 512.631 111.053 436.292 111.053 342.123C111.053 247.954 187.284 171.616 281.319 171.616C375.353 171.616 451.584 247.954 451.584 342.123Z" stroke="#3B87B2"/>
<path d="M485.177 329.309C485.177 432.767 401.426 516.636 298.115 516.636C194.804 516.636 111.054 432.767 111.053 329.309C111.053 225.85 194.804 141.981 298.115 141.98C401.426 141.98 485.177 225.85 485.177 329.309Z" stroke="#3B87B2"/>
</g>
</g>
<circle cx="1127.5" cy="43.5" r="29.5" fill="url(#paint2_linear_2922_512)"/>
<path d="M1142.34 34.2204C1142.93 35.2297 1142.85 36.4314 1142.14 37.3564L1126.57 57.6752C1125.93 58.5131 1124.87 58.9403 1123.79 58.7328C1122.73 58.5292 1121.89 57.7574 1121.6 56.7194L1119.29 48.5195L1119.05 47.6666L1118.43 47.0324L1112.49 40.9372C1111.73 40.1659 1111.48 39.053 1111.84 38.0343C1112.19 37.0273 1113.06 36.2965 1114.14 36.1549L1139.53 32.8297C1140.68 32.678 1141.76 33.2112 1142.34 34.2204Z" fill="white"/>
<path d="M1119.29 48.5196L1121.6 56.7195C1121.89 57.7575 1122.73 58.5293 1123.79 58.7329C1124.87 58.9405 1125.93 58.5133 1126.57 57.6754L1142.14 37.3565C1142.85 36.4316 1142.93 35.2298 1142.34 34.2206L1119.05 47.6668L1119.29 48.5196Z" fill="white"/>
<path d="M1128.53 42.1947C1128.77 42.6052 1128.63 43.1303 1128.22 43.3676L1119.29 48.5194L1119.05 47.6665L1118.44 47.0322L1127.36 41.8805C1127.77 41.6433 1128.29 41.7843 1128.53 42.1947Z" fill="#F0BC22"/>
<path d="M1119.29 48.5197L1128.22 43.3679C1128.63 43.1307 1128.77 42.6055 1128.53 42.1951L1119.05 47.6668L1119.29 48.5197Z" fill="#F0BC22"/>
<path d="M150.441 389.61V391.479H161.162V389.61H150.441ZM154.803 385.045V396.432H156.79V385.045H154.803Z" fill="white"/>
<path d="M115.441 354.61V356.479H126.162V354.61H115.441ZM119.803 350.045V361.432H121.79V350.045H119.803Z" fill="white"/>
<path d="M80.4414 249.61V251.479H91.1621V249.61H80.4414ZM84.8027 245.045V256.432H86.79V245.045H84.8027Z" fill="white"/>
<path d="M80.4414 284.61V286.479H91.1621V284.61H80.4414ZM84.8027 280.045V291.432H86.79V280.045H84.8027Z" fill="white"/>
<path d="M80.4414 319.61V321.479H91.1621V319.61H80.4414ZM84.8027 315.045V326.432H86.79V315.045H84.8027Z" fill="#3B87B2"/>
<path d="M80.4414 354.61V356.479H91.1621V354.61H80.4414ZM84.8027 350.045V361.432H86.79V350.045H84.8027Z" fill="white"/>
<path d="M80.4414 389.61V391.479H91.1621V389.61H80.4414ZM84.8027 385.045V396.432H86.79V385.045H84.8027Z" fill="white"/>
<path d="M45.4414 249.61V251.479H56.1621V249.61H45.4414ZM49.8027 245.045V256.432H51.79V245.045H49.8027Z" fill="white"/>
<path d="M45.4414 284.61V286.479H56.1621V284.61H45.4414ZM49.8027 280.045V291.432H51.79V280.045H49.8027Z" fill="white"/>
<path d="M45.4414 319.61V321.479H56.1621V319.61H45.4414ZM49.8027 315.045V326.432H51.79V315.045H49.8027Z" fill="white"/>
<path d="M45.4414 354.61V356.479H56.1621V354.61H45.4414ZM49.8027 350.045V361.432H51.79V350.045H49.8027Z" fill="white"/>
<path d="M45.4414 389.61V391.479H56.1621V389.61H45.4414ZM49.8027 385.045V396.432H51.79V385.045H49.8027Z" fill="white"/>
<path d="M10.4414 249.61V251.479H21.1621V249.61H10.4414ZM14.8027 245.045V256.432H16.79V245.045H14.8027Z" fill="#D22828"/>
<path d="M10.4414 284.61V286.479H21.1621V284.61H10.4414ZM14.8027 280.045V291.432H16.79V280.045H14.8027Z" fill="white"/>
<path d="M10.4414 319.61V321.479H21.1621V319.61H10.4414ZM14.8027 315.045V326.432H16.79V315.045H14.8027Z" fill="white"/>
<path d="M10.4414 354.61V356.479H21.1621V354.61H10.4414ZM14.8027 350.045V361.432H16.79V350.045H14.8027Z" fill="white"/>
<path d="M10.4414 389.61V391.479H21.1621V389.61H10.4414ZM14.8027 385.045V396.432H16.79V385.045H14.8027Z" fill="white"/>
<defs>
<linearGradient id="paint0_linear_2922_512" x1="1093.24" y1="9.86233" x2="911.232" y2="354.286" gradientUnits="userSpaceOnUse">
<stop stop-color="#747DEF"/>
<stop offset="1" stop-color="#5E3BE1"/>
</linearGradient>
<linearGradient id="paint1_linear_2922_512" x1="709.967" y1="71.7754" x2="470.432" y2="525.707" gradientUnits="userSpaceOnUse">
<stop stop-color="#747DEF"/>
<stop offset="1" stop-color="#5E3BE1"/>
</linearGradient>
<linearGradient id="paint2_linear_2922_512" x1="1139.85" y1="15.6553" x2="1114.49" y2="79.5442" gradientUnits="userSpaceOnUse">
<stop stop-color="#FFBF00"/>
<stop offset="1" stop-color="#F0BC22"/>
</linearGradient>
</defs>
</svg>
