<svg width="14" height="19" viewBox="0 0 14 19" fill="none" xmlns="http://www.w3.org/2000/svg">
<path d="M1.16329 0.111084H13.4009C13.6729 0.111084 13.8952 0.316516 13.8952 0.569756V17.6524C13.8952 17.9048 13.6728 18.1111 13.4009 18.1111H1.16329C0.890341 18.1111 0.668945 17.9048 0.668945 17.6524V0.569756C0.668945 0.316505 0.890353 0.111084 1.16329 0.111084ZM13.1766 8.57976C13.2777 8.57976 13.3722 8.60455 13.4543 8.64706V0.570545C13.4543 0.543096 13.4285 0.520071 13.3999 0.520071H11.1038C11.1162 0.563461 11.1219 0.608621 11.1219 0.656435V3.01281C11.1219 3.42986 10.7554 3.76989 10.3059 3.76989H4.25629C3.8068 3.76989 3.44129 3.42986 3.44129 3.01281V0.656435C3.44129 0.609505 3.44701 0.563459 3.45942 0.520071H1.16328C1.1337 0.520071 1.10888 0.543093 1.10888 0.570545V8.64706C1.19096 8.60455 1.28544 8.57976 1.38564 8.57976H3.95091C4.22576 7.08152 5.63341 5.97562 7.28064 5.97562C8.92879 5.97562 10.3355 7.08158 10.6113 8.57976H13.1766ZM13.4543 9.57592C13.3713 9.61842 13.2777 9.64233 13.1766 9.64233H10.6123C10.3365 11.1415 8.92979 12.2474 7.28159 12.2474C5.63439 12.2474 4.22671 11.1414 3.95186 9.64233H1.38659C1.28638 9.64233 1.19095 9.61842 1.10983 9.57592V17.6524C1.10983 17.679 1.13464 17.7029 1.16423 17.7029H3.46037C3.44796 17.6586 3.44224 17.6144 3.44224 17.5665V15.2102C3.44224 14.7931 3.80775 14.4531 4.25724 14.4531H10.3069C10.7564 14.4531 11.1228 14.7931 11.1228 15.2102V17.5665C11.1228 17.6135 11.1171 17.6586 11.1047 17.7029H13.4008C13.4295 17.7029 13.4552 17.679 13.4552 17.6524V9.57592H13.4543ZM13.1766 8.98795H10.4215C10.3117 8.98795 10.2153 8.91091 10.2029 8.80642C10.0856 7.82087 9.3908 6.96816 8.4059 6.59007C7.69109 6.3147 6.87228 6.3147 6.15557 6.59007C5.48943 6.84509 4.94163 7.32768 4.63053 7.92891C4.49119 8.19544 4.39862 8.48676 4.36044 8.79491C4.35471 8.90294 4.25833 8.98794 4.14094 8.98794H1.38584C1.20928 8.98794 1.21215 9.2341 1.38584 9.2341L4.14094 9.23499C4.25164 9.23499 4.34708 9.31202 4.35948 9.41651C4.47687 10.4021 5.17258 11.2548 6.15652 11.6329C6.87228 11.9082 7.69109 11.9082 8.40685 11.6329C9.07299 11.3778 9.62079 10.8953 9.93285 10.2931C10.0722 10.0266 10.1638 9.73527 10.2029 9.428C10.2087 9.31997 10.305 9.23497 10.4215 9.23497H13.1766C13.3531 9.23497 13.3503 8.98881 13.1766 8.98881L13.1766 8.98795ZM9.44228 9.64232H5.12016C5.29671 10.2648 5.78535 10.7819 6.42667 11.0281C6.97065 11.2371 7.59382 11.2371 8.1378 11.0281C8.77817 10.7819 9.26679 10.2648 9.44335 9.64232H9.44228ZM4.85288 9.2341L9.71053 9.23499C9.72103 9.23499 9.73057 9.23588 9.74107 9.23676C9.86132 9.2527 9.9453 9.3563 9.92717 9.46698C9.79356 10.3339 9.17132 11.0706 8.30289 11.4044C7.00689 11.9021 5.51822 11.3841 4.8901 10.2223C4.76603 9.99298 4.67919 9.74326 4.63718 9.48117C4.61046 9.34569 4.71735 9.23502 4.85287 9.23502L4.85288 9.2341ZM5.12011 8.57974H9.44223C9.26663 7.95812 8.77704 7.44013 8.13668 7.19484C7.59269 6.98586 6.96953 6.98586 6.42554 7.19484C5.78422 7.44011 5.29655 7.95812 5.11904 8.57974H5.12011ZM9.71048 8.98795H4.85283C4.84234 8.98795 4.83184 8.98706 4.82134 8.98529C4.70205 8.96935 4.61806 8.86664 4.63524 8.75507C4.76885 7.88907 5.39205 7.15235 6.25952 6.81851C7.55553 6.31999 9.04419 6.83799 9.67329 8.00062C9.79736 8.23084 9.8842 8.48056 9.92621 8.74265C9.95293 8.87813 9.846 8.98795 9.71048 8.98795ZM4.1734 0.65551C4.1734 0.473986 3.88042 0.477527 3.88042 0.65551V3.01189C3.88042 3.20492 4.04839 3.36078 4.25644 3.36078H10.3061C10.5141 3.36078 10.6821 3.20404 10.6821 3.01189V0.65551C10.6821 0.473986 10.3891 0.477527 10.3891 0.65551V2.88426C10.3891 2.99672 10.2908 3.08793 10.1696 3.08793H4.39386C4.27266 3.08793 4.17436 2.99672 4.17436 2.88426V0.65551H4.1734ZM4.59428 0.519146C4.60668 0.562536 4.61241 0.607694 4.61241 0.65551V2.68061H9.94916V0.65551C9.94916 0.60858 9.95488 0.562534 9.96729 0.519146H4.59428ZM4.61241 17.5673C4.61241 17.6143 4.60668 17.6594 4.59428 17.7037H9.96718C9.95478 17.6594 9.94905 17.6152 9.94905 17.5673V15.5422H4.6123L4.61241 17.5673ZM4.17245 17.5673V15.3377C4.17245 15.2253 4.27075 15.134 4.39195 15.134H10.1677C10.2889 15.134 10.3872 15.2253 10.3872 15.3377V17.5673C10.3872 17.7489 10.6802 17.7444 10.6802 17.5673V15.211C10.6802 15.0179 10.5122 14.8621 10.3042 14.8621H4.25454C4.04649 14.8621 3.87852 15.0179 3.87852 15.211V17.5673C3.87852 17.7489 4.1715 17.7444 4.1715 17.5673H4.17245Z" fill="#9CA0B0"/>
</svg>
