<svg width="49" height="49" viewBox="0 0 49 49" fill="none" xmlns="http://www.w3.org/2000/svg">
<rect x="0.806641" y="0.444458" width="47.818" height="48" rx="13" fill="#F0BC22"/>
<path d="M38.4605 38.1103C37.7425 38.1248 37.0372 37.9228 36.4394 37.5317C35.9944 37.2459 35.4743 37.0938 34.9428 37.0938C34.4113 37.0938 33.8912 37.2459 33.4462 37.5317C32.8424 37.9096 32.1413 38.1103 31.4254 38.1103C30.7095 38.1103 30.0085 37.9096 29.4046 37.5317C28.9596 37.2456 28.4394 37.0933 27.9077 37.0933C27.3761 37.0933 26.8559 37.2456 26.4109 37.5317C25.807 37.9096 25.106 38.1103 24.3901 38.1103C23.6742 38.1103 22.9731 37.9096 22.3692 37.5317C21.9246 37.2458 21.4048 37.0936 20.8735 37.0936C20.3421 37.0936 19.8223 37.2458 19.3777 37.5317C18.8302 37.8894 18.1912 38.0881 17.534 38.1052L17.4978 37.0883C17.9832 37.077 18.4546 36.926 18.8537 36.6541C19.4574 36.2763 20.1583 36.0756 20.874 36.0756C21.5897 36.0756 22.2906 36.2763 22.8943 36.6541C23.3392 36.94 23.8593 37.0923 24.3909 37.0923C24.9224 37.0923 25.4425 36.94 25.8874 36.6541C26.4914 36.276 27.1927 36.0751 27.9088 36.0751C28.6249 36.0751 29.3262 36.276 29.9301 36.6541C30.3751 36.94 30.8951 37.0923 31.4267 37.0923C31.9583 37.0923 32.4783 36.94 32.9233 36.6541C33.5272 36.2763 34.2282 36.0757 34.9441 36.0757C35.66 36.0757 36.361 36.2763 36.9649 36.6541C37.411 36.9407 37.9323 37.0933 38.4651 37.0933C38.998 37.0933 39.5193 36.9407 39.9653 36.6541C40.5624 36.2641 41.2665 36.0626 41.9833 36.0765V37.0934C41.4496 37.0791 40.9251 37.2324 40.4862 37.5312C39.8869 37.9229 39.18 38.125 38.4605 38.1103V38.1103Z" fill="white" stroke="white"/>
<path d="M10.3243 38.1102C9.60644 38.1248 8.90127 37.9229 8.30371 37.5316C7.86489 37.2326 7.34041 37.0791 6.80664 37.0933V36.0764C7.52467 36.0618 8.23003 36.2637 8.82774 36.655C9.26633 36.9542 9.79067 37.1077 10.3243 37.0933C10.8582 37.1077 11.3827 36.954 11.8214 36.6545C12.4178 36.2634 13.122 36.0616 13.8389 36.0764C14.5383 36.061 15.2262 36.2536 15.8124 36.6291L15.2904 37.5067C14.8623 37.2235 14.3547 37.079 13.8389 37.0933C13.3072 37.0792 12.7848 37.2324 12.348 37.5306C11.7497 37.923 11.0433 38.1253 10.3243 38.1102V38.1102Z" fill="white" stroke="white"/>
<path d="M38.4619 34.5508C37.7435 34.5652 37.0377 34.3633 36.4393 33.9722C35.9939 33.6862 35.4735 33.5338 34.9414 33.5338C34.4094 33.5338 33.8889 33.6862 33.4436 33.9722C32.8398 34.35 32.1388 34.5507 31.423 34.5507C30.7072 34.5507 30.0063 34.35 29.4024 33.9722C28.9577 33.6863 28.4378 33.5341 27.9064 33.5341C27.375 33.5341 26.8551 33.6863 26.4103 33.9722C25.8065 34.3501 25.1056 34.5509 24.3898 34.5509C23.6739 34.5509 22.973 34.3501 22.3692 33.9722C21.9244 33.6863 21.4045 33.5341 20.8731 33.5341C20.3417 33.5341 19.8218 33.6863 19.3771 33.9722C18.7796 34.3635 18.0744 34.5655 17.3565 34.5508C16.6386 34.5655 15.9335 34.3635 15.3359 33.9722C14.8975 33.6732 14.3733 33.5196 13.8399 33.5339C13.3066 33.5197 12.7826 33.6732 12.3444 33.9722C11.7478 34.3631 11.0437 34.565 10.3269 34.5508C9.60886 34.5655 8.9035 34.3635 8.30578 33.9722C7.86648 33.6726 7.34114 33.519 6.80664 33.5339V32.517C7.5245 32.5024 8.22967 32.7044 8.82723 33.0956C9.26605 33.3947 9.79053 33.5482 10.3243 33.5339C10.8576 33.5482 11.3816 33.3946 11.8198 33.0956C12.4164 32.7048 13.1205 32.5028 13.8373 32.517C14.5557 32.502 15.2615 32.704 15.8594 33.0956C16.298 33.3947 16.8224 33.5483 17.356 33.5339C17.8896 33.5483 18.414 33.3947 18.8526 33.0956C19.4563 32.7177 20.1573 32.5169 20.8731 32.5169C21.589 32.5169 22.2899 32.7177 22.8937 33.0956C23.3385 33.3815 23.8585 33.5338 24.39 33.5338C24.9215 33.5338 25.4415 33.3815 25.8863 33.0956C26.4901 32.7177 27.1911 32.5169 27.9069 32.5169C28.6227 32.5169 29.3237 32.7177 29.9275 33.0956C30.3723 33.3815 30.8923 33.5338 31.4238 33.5338C31.9553 33.5338 32.4753 33.3815 32.9201 33.0956C33.5245 32.7178 34.2259 32.5171 34.9422 32.5171C35.6585 32.5171 36.36 32.7178 36.9644 33.0956C37.41 33.3815 37.9306 33.5337 38.4627 33.5337C38.9948 33.5337 39.5155 33.3815 39.9611 33.0956C40.5593 32.7046 41.2649 32.5027 41.9832 32.517V33.5339C41.4484 33.5191 40.9228 33.6726 40.483 33.9722C39.8851 34.363 39.1799 34.5649 38.4619 34.5508V34.5508Z" fill="white" stroke="white"/>
<path d="M38.4606 30.992C37.7426 31.0064 37.0373 30.8045 36.4395 30.4134C36.0006 30.1144 35.4762 29.9608 34.9424 29.9751C34.5507 29.9619 34.1617 30.044 33.81 30.2141L33.3538 29.2989C33.8476 29.061 34.3926 28.9436 34.9424 28.9567C35.6613 28.9423 36.3674 29.1448 36.9656 29.5368C37.4116 29.8234 37.9329 29.976 38.4657 29.976C38.9986 29.976 39.5199 29.8234 39.9659 29.5368C40.5628 29.1466 41.2667 28.9447 41.9834 28.9582V29.9751C41.4497 29.9607 40.9253 30.1141 40.4863 30.4129C39.887 30.8046 39.1801 31.0067 38.4606 30.992Z" fill="white" stroke="white"/>
<path d="M31.4199 30.992C30.7031 31.0068 29.9989 30.805 29.4024 30.4139C28.9575 30.1278 28.4373 29.9754 27.9056 29.9754C27.3739 29.9754 26.8538 30.1278 26.4088 30.4139C25.8049 30.7918 25.1038 30.9925 24.3879 30.9925C23.672 30.9925 22.971 30.7918 22.3671 30.4139C21.9222 30.128 21.4021 29.9757 20.8705 29.9757C20.339 29.9757 19.8189 30.128 19.374 30.4139C18.7766 30.8045 18.0719 31.0062 17.3544 30.992C16.6366 31.0066 15.9314 30.8046 15.3339 30.4133C14.895 30.1143 14.3706 29.9608 13.8368 29.9751C13.3051 29.961 12.7828 30.1142 12.3459 30.4123C11.7483 30.8043 11.0426 31.0066 10.3243 30.992C9.60644 31.0066 8.90127 30.8046 8.30371 30.4133C7.86489 30.1143 7.34041 29.9608 6.80664 29.9751V28.9582C7.52467 28.9435 8.23003 29.1454 8.82774 29.5368C9.26633 29.8359 9.79067 29.9894 10.3243 29.9751C10.8582 29.9895 11.3827 29.8357 11.8214 29.5363C12.4178 29.1451 13.122 28.9434 13.8389 28.9582C14.5567 28.9436 15.2619 29.1455 15.8594 29.5368C16.298 29.8359 16.8224 29.9894 17.356 29.9751C17.8898 29.9893 18.4142 29.8358 18.8531 29.5368C19.457 29.1589 20.158 28.9582 20.8739 28.9582C21.5898 28.9582 22.2909 29.1589 22.8948 29.5368C23.3397 29.8227 23.8597 29.9749 24.3913 29.9749C24.9229 29.9749 25.4429 29.8227 25.8879 29.5368C26.4919 29.1586 27.1931 28.9577 27.9092 28.9577C28.6253 28.9577 29.3266 29.1586 29.9306 29.5368C30.3863 29.8381 30.9268 29.9912 31.4758 29.9746C31.5157 29.9751 31.5556 29.973 31.5953 29.9685L31.7329 30.9762C31.629 30.9881 31.5245 30.9934 31.4199 30.992V30.992Z" fill="white" stroke="white"/>
<path d="M38.4619 27.4323C37.7435 27.4467 37.0377 27.2448 36.4393 26.8537C35.9939 26.5676 35.4735 26.4153 34.9414 26.4153C34.4094 26.4153 33.8889 26.5676 33.4436 26.8537C32.8398 27.2315 32.1388 27.4321 31.423 27.4321C30.7072 27.4321 30.0063 27.2315 29.4024 26.8537C28.9577 26.5678 28.4378 26.4156 27.9064 26.4156C27.375 26.4156 26.8551 26.5678 26.4103 26.8537C25.8065 27.2316 25.1056 27.4323 24.3898 27.4323C23.6739 27.4323 22.973 27.2316 22.3692 26.8537C21.9244 26.5678 21.4045 26.4156 20.8731 26.4156C20.3417 26.4156 19.8218 26.5678 19.3771 26.8537C18.7796 27.245 18.0744 27.4469 17.3565 27.4323C16.6386 27.4469 15.9335 27.245 15.3359 26.8537C14.8975 26.5546 14.3733 26.4011 13.8399 26.4154C13.3066 26.4012 12.7826 26.5547 12.3444 26.8537C11.7478 27.2446 11.0437 27.4465 10.3269 27.4323C9.60886 27.447 8.9035 27.245 8.30578 26.8537C7.86648 26.554 7.34114 26.4005 6.80664 26.4154V25.3985C7.5245 25.3839 8.22967 25.5858 8.82723 25.9771C9.26605 26.2761 9.79053 26.4297 10.3243 26.4154C10.8576 26.4296 11.3816 26.2761 11.8198 25.9771C12.4164 25.5862 13.1205 25.3843 13.8373 25.3985C14.5557 25.3835 15.2615 25.5854 15.8594 25.9771C16.298 26.2762 16.8224 26.4298 17.356 26.4154C17.8896 26.4298 18.414 26.2762 18.8526 25.9771C19.4563 25.5991 20.1573 25.3984 20.8731 25.3984C21.589 25.3984 22.2899 25.5991 22.8937 25.9771C23.3385 26.263 23.8585 26.4153 24.39 26.4153C24.9215 26.4153 25.4415 26.263 25.8863 25.9771C26.4901 25.5991 27.1911 25.3984 27.9069 25.3984C28.6227 25.3984 29.3237 25.5991 29.9275 25.9771C30.3723 26.263 30.8923 26.4153 31.4238 26.4153C31.9553 26.4153 32.4753 26.263 32.9201 25.9771C33.5245 25.5993 34.2259 25.3986 34.9422 25.3986C35.6585 25.3986 36.36 25.5993 36.9644 25.9771C37.41 26.2629 37.9306 26.4151 38.4627 26.4151C38.9948 26.4151 39.5155 26.2629 39.9611 25.9771C40.5593 25.5861 41.2649 25.3842 41.9832 25.3985V26.4154C41.4484 26.4005 40.9228 26.5541 40.483 26.8537C39.8851 27.2445 39.1799 27.4464 38.4619 27.4323V27.4323Z" fill="white" stroke="white"/>
<path d="M31.0905 27.001L30.1143 26.6644C30.3657 25.9545 30.4684 25.2019 30.4163 24.4519C30.3641 23.7019 30.1581 22.9701 29.8107 22.3004L26.2573 15.4612C26.2222 15.3936 26.203 15.3192 26.2009 15.2434C26.1989 15.1676 26.2141 15.0923 26.2455 15.023C26.2769 14.9538 26.3236 14.8923 26.3823 14.8431C26.4411 14.7939 26.5102 14.7582 26.5848 14.7386L33.6661 12.8828C33.8969 12.8235 34.0945 12.677 34.2159 12.4752C34.3374 12.2734 34.3728 12.0327 34.3146 11.8053C34.2563 11.578 34.1091 11.3824 33.905 11.2612C33.7008 11.14 33.4562 11.103 33.2243 11.1581L24.6537 13.1716C24.4704 13.2142 24.2997 13.2976 24.1545 13.4155C24.0094 13.5333 23.8938 13.6824 23.8167 13.8513C23.7396 14.0201 23.7031 14.2041 23.71 14.389C23.7169 14.5739 23.7671 14.7548 23.8565 14.9176L26.4016 19.5649C26.4662 19.683 26.4807 19.8214 26.4419 19.95C26.4032 20.0785 26.3143 20.1868 26.1947 20.2513L22.9098 22.0309L22.4106 21.1401L25.2465 19.6035L22.9466 15.3996C22.782 15.0995 22.6899 14.7663 22.6774 14.4256C22.6648 14.0849 22.7322 13.7459 22.8742 13.4349C23.0162 13.1239 23.2291 12.8492 23.4964 12.6319C23.7637 12.4147 24.0782 12.2608 24.4157 12.1821L32.9822 10.1692C33.481 10.0453 34.0093 10.1213 34.451 10.3803C34.8928 10.6393 35.2118 11.0602 35.3378 11.5504C35.4638 12.0406 35.3865 12.5599 35.123 12.9941C34.8595 13.4283 34.4312 13.7418 33.9325 13.8656L27.4693 15.5588L30.7325 21.8372C31.1434 22.6297 31.3869 23.4957 31.4484 24.3831C31.51 25.2706 31.3882 26.161 31.0905 27.001V27.001Z" fill="white" stroke="white"/>
<path d="M20.602 22.1276L14.3157 25.5323L14.8147 26.4225L21.1011 23.0178L20.602 22.1276Z" fill="white" stroke="white"/>
<path d="M35.7755 23.6187C35.0082 23.6187 34.2581 23.3951 33.62 22.9761C32.982 22.557 32.4847 21.9615 32.1911 21.2647C31.8974 20.5679 31.8206 19.8011 31.9703 19.0614C32.12 18.3217 32.4895 17.6422 33.0321 17.1089C33.5747 16.5755 34.266 16.2124 35.0186 16.0652C35.7712 15.9181 36.5513 15.9936 37.2602 16.2822C37.9692 16.5708 38.5751 17.0596 39.0014 17.6867C39.4277 18.3138 39.6553 19.0511 39.6553 19.8053C39.6542 20.8164 39.2451 21.7857 38.5177 22.5006C37.7904 23.2156 36.8042 23.6177 35.7755 23.6187V23.6187ZM35.7755 17.0089C35.2128 17.0089 34.6627 17.1729 34.1948 17.4801C33.7269 17.7874 33.3623 18.2242 33.1469 18.7352C32.9316 19.2462 32.8752 19.8084 32.985 20.3509C33.0948 20.8934 33.3658 21.3917 33.7637 21.7828C34.1616 22.1739 34.6685 22.4402 35.2205 22.5481C35.7724 22.656 36.3444 22.6006 36.8643 22.389C37.3842 22.1773 37.8286 21.8189 38.1412 21.359C38.4538 20.8991 38.6207 20.3584 38.6207 19.8053C38.6197 19.064 38.3197 18.3532 37.7863 17.829C37.2529 17.3047 36.5298 17.0098 35.7755 17.0089V17.0089Z" fill="white" stroke="white"/>
</svg>
