<svg width="21" height="19" viewBox="0 0 21 19" fill="none" xmlns="http://www.w3.org/2000/svg">
<path d="M19.3132 1.85813C18.2607 0.746213 16.7859 0.113546 15.2408 0.1112C13.6944 0.112959 12.218 0.745291 11.1639 1.85742L10.8047 2.23055L10.4454 1.85742C8.3538 -0.355238 4.83321 -0.482307 2.58209 1.57355C2.48234 1.66468 2.38599 1.75933 2.29327 1.85742C0.0744436 4.20976 0.0744436 7.84518 2.29327 10.1975L10.2767 18.4726C10.5529 18.7592 11.0132 18.7714 11.3048 18.5C11.3144 18.4911 11.3236 18.482 11.3327 18.4726L19.3132 10.1975C21.5319 7.84543 21.5319 4.21022 19.3132 1.85813ZM18.2609 9.21325H18.2602L10.8047 16.9422L3.34848 9.21325C1.65343 7.41585 1.65343 4.63838 3.34848 2.84098C4.8878 1.20113 7.4882 1.09831 9.15659 2.61129C9.23759 2.68476 9.31553 2.76136 9.39026 2.84098L10.2767 3.7602C10.5689 4.0455 11.0405 4.0455 11.3327 3.7602L12.2192 2.84169C13.7585 1.20185 16.3589 1.09903 18.0273 2.61201C18.1083 2.68547 18.1862 2.76207 18.2609 2.84169C19.9707 4.64194 19.9833 7.42448 18.2609 9.21325Z" fill="#D22828"/>
</svg>
