<svg width="38" height="38" viewBox="0 0 38 38" fill="none" xmlns="http://www.w3.org/2000/svg">
<ellipse cx="18.7749" cy="18.1111" rx="18.3133" ry="18" fill="#9CA0B0"/>
<path d="M24.5415 13.6615H21.1027V14.4295H24.5415C25.0441 14.4295 25.4674 14.8391 25.4674 15.3255V25.3607C25.4674 25.8471 25.0441 26.2567 24.5415 26.2567H13.0082C12.5056 26.2567 12.0824 25.8471 12.0824 25.3607V15.3255C12.0824 14.8391 12.5056 14.4295 13.0082 14.4295H16.1825V13.6615H13.0082C12.0559 13.6615 11.2888 14.4039 11.2888 15.3255V25.3607C11.2888 26.2823 12.0559 27.0247 13.0082 27.0247H24.568C25.5203 27.0247 26.2874 26.2823 26.2874 25.3607V15.3255C26.2609 14.4039 25.4938 13.6615 24.5415 13.6615ZM18.3781 9.48874V20.3431H19.1717V9.48874L20.9175 11.1783L21.473 10.6407L18.7749 8.02954L16.0503 10.6407L16.6058 11.1783L18.3781 9.48874Z" fill="#F2F2F2"/>
</svg>
