<svg width="38" height="39" viewBox="0 0 38 39" fill="none" xmlns="http://www.w3.org/2000/svg">
<ellipse cx="18.9822" cy="18.1111" rx="18.3133" ry="18" fill="#F2F2F2"/>
<path d="M19.0415 29.8881C18.4945 29.8881 17.9832 29.6204 17.6741 29.1704C17.3651 28.7204 17.299 28.1496 17.4981 27.6433L18.5092 25.0652L17.1964 23.4787L15.0631 25.6683L9.9387 25.5652C9.50388 25.5392 9.12144 25.3329 8.87312 24.9975C8.62481 24.6621 8.53889 24.2381 8.63843 23.8329L8.75787 23.3464C8.91294 22.7173 9.47558 22.2777 10.1262 22.2777H13.5796L15.693 16.3526L13.7892 16.7266L13.0285 18.3026C12.7634 18.8516 12.1777 19.1672 11.57 19.0849C11.1352 19.0266 10.7591 18.7776 10.539 18.3995C10.319 18.0224 10.2876 17.5735 10.4521 17.1683L10.7968 16.3255C11.3794 14.9005 12.6168 13.8068 14.1078 13.3994L15.9183 12.9046C16.4191 12.7671 16.9357 12.7161 17.4543 12.7515L21.1518 13.0067C22.2991 13.0859 23.3102 13.7338 23.8582 14.739L24.7854 16.4431H26.664C27.1376 16.4431 27.5923 16.6442 27.9098 16.9942C28.2283 17.3442 28.3834 17.814 28.3352 18.2838C28.243 19.1817 27.4362 19.8525 26.5268 19.7796L22.4186 19.4473L21.5228 18.015L20.3535 21.7763L22.0593 24.2315L20.6196 28.7398C20.4007 29.4263 19.7668 29.8888 19.0407 29.8888L19.0415 29.8881ZM17.2477 22.2276L19.4679 24.9119L18.2787 27.9452C18.1791 28.1994 18.2106 28.4744 18.3656 28.6994C18.5207 28.9243 18.7669 29.0535 19.0414 29.0535C19.3998 29.0535 19.713 28.8254 19.822 28.4858L21.1369 24.3671L19.4343 21.9151L21.2658 16.0223L22.9087 18.6494L26.5968 18.9473C27.0536 18.9921 27.457 18.6473 27.5031 18.1973C27.5272 17.9587 27.4517 17.7296 27.2893 17.5514C27.128 17.3733 26.9058 17.2754 26.6649 17.2754H24.2875L23.1224 15.1348C22.7127 14.3817 21.9552 13.8962 21.096 13.8379L17.3986 13.5827C16.9753 13.5525 16.552 13.5952 16.1434 13.7077L14.3328 14.2025C13.0913 14.5421 12.0613 15.4525 11.5763 16.6389L11.2316 17.4817C11.1645 17.6452 11.1771 17.8275 11.2672 17.9806C11.3563 18.1337 11.5082 18.2348 11.6842 18.2577C11.9325 18.2931 12.1683 18.164 12.2751 17.941L13.2171 15.989L16.9765 15.2504L14.1727 23.1099H10.1263C9.86226 23.1099 9.63386 23.288 9.57204 23.5432L9.4526 24.0297C9.41278 24.1932 9.44736 24.3651 9.54794 24.5015C9.64853 24.637 9.80359 24.7213 9.97332 24.7318L14.7166 24.8265L17.249 22.2276L17.2477 22.2276Z" fill="#9CA0B0"/>
<path d="M20.7786 12.6946C19.0456 12.6946 17.6353 11.2925 17.6353 9.56952C17.6353 7.84654 19.0455 6.44446 20.7786 6.44446C22.5116 6.44446 23.9219 7.84654 23.9219 9.56952C23.9219 11.2925 22.5116 12.6946 20.7786 12.6946ZM20.7786 7.27806C19.5077 7.27806 18.4735 8.30619 18.4735 9.56974C18.4735 10.8333 19.5077 11.8614 20.7786 11.8614C22.0495 11.8614 23.0836 10.8333 23.0836 9.56974C23.0836 8.30619 22.0495 7.27806 20.7786 7.27806Z" fill="#9CA0B0"/>
<path d="M17.7893 9.46625L17.892 8.63916L23.51 9.33084L23.4073 10.1579L17.7893 9.46625Z" fill="#9CA0B0"/>
<path d="M21.4158 11.7247C21.377 11.7247 21.3382 11.7236 21.2984 11.7205C21.0501 11.7038 20.8363 11.5903 20.6802 11.3913C20.2234 10.8111 20.4099 9.59132 20.4518 9.35278L21.2774 9.49653C21.1643 10.1413 21.223 10.8017 21.3508 10.8893C21.6463 10.909 21.9155 10.7768 22.1743 10.6497C22.4907 10.4945 22.848 10.3184 23.2273 10.4893L22.8794 11.2476C22.8417 11.2518 22.6636 11.3393 22.5452 11.3966C22.2613 11.5361 21.8788 11.7236 21.4147 11.7236L21.4158 11.7247Z" fill="#9CA0B0"/>
<path d="M25.5981 30.1943C23.9804 30.1943 22.6643 28.886 22.6643 27.2775C22.6643 25.669 23.9803 24.3607 25.5981 24.3607C27.216 24.3607 28.532 25.669 28.532 27.2775C28.532 28.886 27.216 30.1943 25.5981 30.1943ZM25.5981 25.1943C24.4425 25.1943 23.5026 26.1287 23.5026 27.2777C23.5026 28.4266 24.4425 29.361 25.5981 29.361C26.7538 29.361 27.6937 28.4266 27.6937 27.2777C27.6937 26.1287 26.7538 25.1943 25.5981 25.1943Z" fill="#9CA0B0"/>
</svg>
