<svg width="49" height="49" viewBox="0 0 49 49" fill="none" xmlns="http://www.w3.org/2000/svg">
<rect x="0.806641" y="0.444458" width="47.818" height="48" rx="13" fill="#3B87B2"/>
<path fill-rule="evenodd" clip-rule="evenodd" d="M14.9046 29.9488H16.8636C17.2469 29.9473 17.5584 29.6462 17.5599 29.2739V29.265C17.5569 28.4105 16.8438 27.7178 15.9643 27.7148H15.8039C14.9244 27.7178 14.2113 28.4105 14.2083 29.265V29.2739C14.2098 29.6462 14.5213 29.9473 14.9046 29.9488ZM22.4373 10.1111C24.152 10.1111 25.6286 11.2875 25.9645 12.9222C26.3005 14.5569 25.4011 16.1931 23.8161 16.8325C22.2311 17.4704 20.4033 16.9334 19.4489 15.5479C18.4946 14.1638 18.6809 12.317 19.8933 11.1378C20.5667 10.4806 21.4814 10.1111 22.4373 10.1111ZM24.5048 11.599C23.5184 10.6392 21.9715 10.4908 20.8111 11.2444C19.6505 11.9965 19.2001 13.4414 19.733 14.6934C20.2675 15.9469 21.6372 16.6574 23.0053 16.3934C24.375 16.1294 25.3599 14.9619 25.3599 13.6075C25.3614 12.854 25.053 12.1301 24.5048 11.599ZM20.3925 32.8726L19.829 29.1536L18.2303 29.1551C18.2318 29.1937 18.2334 29.2278 18.2334 29.2649V29.2738C18.2303 30.0066 17.6195 30.6 16.8652 30.6029H14.9046C14.1503 30.6 13.5395 30.0066 13.5364 29.2738V29.2649C13.5364 29.2263 13.5364 29.1907 13.5395 29.1551H8.71262C7.92014 29.167 7.21007 28.6775 6.9627 27.9446C6.86345 27.685 6.81001 27.4091 6.80695 27.1303C6.80237 26.8529 6.84818 26.5769 6.94133 26.3144C7.16731 25.5979 7.84986 25.1084 8.62252 25.1113L16.4468 24.9689L16.7324 21.6713V21.6698C16.8225 20.5097 17.3309 19.4164 18.1677 18.5828C18.9679 17.7936 20.0627 17.35 21.2033 17.3545H23.8679C26.3339 17.3604 28.3312 19.3007 28.339 21.6966V23.8446L32.4236 23.2572C32.9504 23.177 33.4879 23.318 33.9017 23.6458C34.3154 23.9736 34.5659 24.4557 34.5903 24.9735L35.2011 35.5785C35.2561 36.5917 34.459 37.4566 33.4176 37.5159L33.0985 37.5337V37.5322C32.0632 37.5886 31.176 36.8276 31.1042 35.8233L30.6202 29.1362H24.2879L24.9583 35.1561L24.9567 35.1576C25.0178 35.6768 24.8468 36.1975 24.4864 36.5861C24.1261 36.9747 23.613 37.1958 23.074 37.1914H15.3185C14.274 37.1899 13.4266 36.368 13.425 35.3534V34.984C13.4265 34.008 14.2114 33.2024 15.2146 33.1476L20.391 32.8717L20.3925 32.8726ZM18.0914 28.4993C17.76 27.6375 16.9125 27.0634 15.9643 27.0604H15.804C15.2023 27.0604 14.6252 27.2933 14.2006 27.7057C13.9701 27.9311 13.7914 28.2011 13.6769 28.4978H8.71282C8.20281 28.5037 7.74776 28.1848 7.59203 27.7131C7.51873 27.5232 7.48056 27.3229 7.47903 27.1212C7.47598 26.9194 7.50804 26.7206 7.57676 26.5308C7.71571 26.0768 8.14325 25.7638 8.63188 25.7609L16.7353 25.6155C16.7536 25.617 16.7719 25.617 16.7903 25.6155L19.806 25.5606C19.8243 25.5621 19.8427 25.5621 19.861 25.5606H19.8915C19.8778 25.5769 19.864 25.5947 19.8518 25.6125H19.8533C19.5541 26.0027 19.4258 26.4922 19.4991 26.9743L19.7312 28.5022L18.0914 28.4993ZM19.7496 23.1827C19.7756 23.0077 19.942 22.8831 20.1237 22.9053C20.307 22.9261 20.4368 23.0848 20.4185 23.2628L20.2093 24.899L21.1086 24.8827L27.6653 23.9407V21.6963C27.6592 19.6625 25.9612 18.013 23.8677 18.007H21.2032C20.2412 18.0041 19.3189 18.3779 18.644 19.044C17.9186 19.7679 17.4804 20.7173 17.4041 21.7245L17.1231 24.9569L19.528 24.9139L19.7495 23.1857L19.7496 23.1827ZM28.0684 24.5415L32.5212 23.9007V23.9022C32.8617 23.8503 33.2083 23.9407 33.474 24.1514C33.7413 24.362 33.9031 24.6736 33.9184 25.0073L34.5307 35.6139C34.5658 36.2666 34.0527 36.8259 33.3809 36.8645L33.0602 36.8823V36.8808C32.396 36.9149 31.8249 36.4268 31.776 35.7816L31.2676 28.7872C31.2553 28.6166 31.1087 28.4831 30.9331 28.4831H23.9106C23.7243 28.4831 23.5731 28.63 23.5731 28.8109C23.5731 28.8302 23.5762 28.8495 23.5792 28.8688L24.2862 35.2282C24.329 35.5635 24.2205 35.9002 23.9885 36.1524C23.7564 36.4031 23.4235 36.5455 23.0753 36.5395H15.3183C14.6464 36.5381 14.1013 36.0085 14.0997 35.3558V34.9864C14.0952 34.3559 14.6021 33.8338 15.2511 33.8011L20.7972 33.5074C20.982 33.497 21.124 33.3442 21.1148 33.1633C21.1148 33.1529 21.1148 33.144 21.1118 33.1336L20.4552 28.796C20.4536 28.7841 20.4521 28.7738 20.449 28.7634L20.1635 26.878C20.0658 26.2312 20.5269 25.6289 21.1927 25.5325L28.0335 24.549C28.0442 24.5475 28.0564 24.546 28.0671 24.5445L28.0684 24.5415ZM38.3922 19.6225C36.6759 19.6225 35.1993 20.7989 34.8634 22.4336C34.5275 24.0684 35.4268 25.7046 37.0118 26.344C38.5968 26.9833 40.4246 26.4448 41.379 25.0593C42.3334 23.6753 42.147 21.8284 40.9362 20.6492C40.2613 19.992 39.3465 19.6225 38.3922 19.6225ZM40.4597 21.1089V21.1104C41.4446 22.0687 41.5973 23.57 40.8216 24.6959C40.0474 25.8218 38.5617 26.2594 37.2729 25.7417C35.9842 25.2225 35.2528 23.8918 35.5246 22.5627C35.7964 21.235 36.9981 20.2782 38.3922 20.2782C39.1664 20.2767 39.91 20.5764 40.4582 21.1104L40.4597 21.1089Z" fill="white"/>
<path d="M24.5048 11.5975V11.599M24.5048 11.599C23.5184 10.6392 21.9715 10.4908 20.8111 11.2444C19.6505 11.9965 19.2001 13.4414 19.733 14.6934C20.2675 15.9469 21.6372 16.6574 23.0053 16.3934C24.375 16.1294 25.3599 14.9619 25.3599 13.6075C25.3614 12.854 25.053 12.1301 24.5048 11.599ZM14.9046 29.9488H16.8636C17.2469 29.9473 17.5584 29.6462 17.5599 29.2739V29.265C17.5569 28.4105 16.8438 27.7178 15.9643 27.7148H15.8039C14.9244 27.7178 14.2113 28.4105 14.2083 29.265V29.2739C14.2098 29.6462 14.5213 29.9473 14.9046 29.9488ZM22.4373 10.1111C24.152 10.1111 25.6286 11.2875 25.9645 12.9222C26.3005 14.5569 25.4011 16.1931 23.8161 16.8325C22.2311 17.4704 20.4033 16.9334 19.4489 15.5479C18.4946 14.1638 18.6809 12.317 19.8933 11.1378C20.5667 10.4806 21.4814 10.1111 22.4373 10.1111ZM20.3925 32.8726L19.829 29.1536L18.2303 29.1551C18.2318 29.1937 18.2334 29.2278 18.2334 29.2649V29.2738C18.2303 30.0066 17.6195 30.6 16.8652 30.6029H14.9046C14.1503 30.6 13.5395 30.0066 13.5364 29.2738V29.2649C13.5364 29.2263 13.5364 29.1907 13.5395 29.1551H8.71262C7.92014 29.167 7.21007 28.6775 6.9627 27.9446C6.86345 27.685 6.81001 27.4091 6.80695 27.1303C6.80237 26.8529 6.84818 26.5769 6.94133 26.3144C7.16731 25.5979 7.84986 25.1084 8.62252 25.1113L16.4468 24.9689L16.7324 21.6713V21.6698C16.8225 20.5097 17.3309 19.4164 18.1677 18.5828C18.9679 17.7936 20.0627 17.35 21.2033 17.3545H23.8679C26.3339 17.3604 28.3312 19.3007 28.339 21.6966V23.8446L32.4236 23.2572C32.9504 23.177 33.4879 23.318 33.9017 23.6458C34.3154 23.9736 34.5659 24.4557 34.5903 24.9735L35.2011 35.5785C35.2561 36.5917 34.459 37.4566 33.4176 37.5159L33.0985 37.5337V37.5322C32.0632 37.5886 31.176 36.8276 31.1042 35.8233L30.6202 29.1362H24.2879L24.9583 35.1561L24.9567 35.1576C25.0178 35.6768 24.8468 36.1975 24.4864 36.5861C24.1261 36.9747 23.613 37.1958 23.074 37.1914H15.3185C14.274 37.1899 13.4266 36.368 13.425 35.3534V34.984C13.4265 34.008 14.2114 33.2024 15.2146 33.1476L20.391 32.8717L20.3925 32.8726ZM18.0914 28.4993C17.76 27.6375 16.9125 27.0634 15.9643 27.0604H15.804C15.2023 27.0604 14.6252 27.2933 14.2006 27.7057C13.9701 27.9311 13.7914 28.2011 13.6769 28.4978H8.71282C8.20281 28.5037 7.74776 28.1848 7.59203 27.7131C7.51873 27.5232 7.48056 27.3229 7.47903 27.1212C7.47598 26.9194 7.50804 26.7206 7.57676 26.5308C7.71571 26.0768 8.14325 25.7638 8.63188 25.7609L16.7353 25.6155C16.7536 25.617 16.7719 25.617 16.7903 25.6155L19.806 25.5606C19.8243 25.5621 19.8427 25.5621 19.861 25.5606H19.8915C19.8778 25.5769 19.864 25.5947 19.8518 25.6125H19.8533C19.5541 26.0027 19.4258 26.4922 19.4991 26.9743L19.7312 28.5022L18.0914 28.4993ZM19.7496 23.1827C19.7756 23.0077 19.942 22.8831 20.1237 22.9053C20.307 22.9261 20.4368 23.0848 20.4185 23.2628L20.2093 24.899L21.1086 24.8827L27.6653 23.9407V21.6963C27.6592 19.6625 25.9612 18.013 23.8677 18.007H21.2032C20.2412 18.0041 19.3189 18.3779 18.644 19.044C17.9186 19.7679 17.4804 20.7173 17.4041 21.7245L17.1231 24.9569L19.528 24.9139L19.7495 23.1857L19.7496 23.1827ZM28.0684 24.5415L32.5212 23.9007V23.9022C32.8617 23.8503 33.2083 23.9407 33.474 24.1514C33.7413 24.362 33.9031 24.6736 33.9184 25.0073L34.5307 35.6139C34.5658 36.2666 34.0527 36.8259 33.3809 36.8645L33.0602 36.8823V36.8808C32.396 36.9149 31.8249 36.4268 31.776 35.7816L31.2676 28.7872C31.2553 28.6166 31.1087 28.4831 30.9331 28.4831H23.9106C23.7243 28.4831 23.5731 28.63 23.5731 28.8109C23.5731 28.8302 23.5762 28.8495 23.5792 28.8688L24.2862 35.2282C24.329 35.5635 24.2205 35.9002 23.9885 36.1524C23.7564 36.4031 23.4235 36.5455 23.0753 36.5395H15.3183C14.6464 36.5381 14.1013 36.0085 14.0997 35.3558V34.9864C14.0952 34.3559 14.6021 33.8338 15.2511 33.8011L20.7972 33.5074C20.982 33.497 21.124 33.3442 21.1148 33.1633C21.1148 33.1529 21.1148 33.144 21.1118 33.1336L20.4552 28.796C20.4536 28.7841 20.4521 28.7738 20.449 28.7634L20.1635 26.878C20.0658 26.2312 20.5269 25.6289 21.1927 25.5325L28.0335 24.549C28.0442 24.5475 28.0564 24.546 28.0671 24.5445L28.0684 24.5415ZM38.3922 19.6225C36.6759 19.6225 35.1993 20.7989 34.8634 22.4336C34.5275 24.0684 35.4268 25.7046 37.0118 26.344C38.5968 26.9833 40.4246 26.4448 41.379 25.0593C42.3334 23.6753 42.147 21.8284 40.9362 20.6492C40.2613 19.992 39.3465 19.6225 38.3922 19.6225ZM40.4597 21.1089V21.1104C41.4446 22.0687 41.5973 23.57 40.8216 24.6959C40.0474 25.8218 38.5617 26.2594 37.2729 25.7417C35.9842 25.2225 35.2528 23.8918 35.5246 22.5627C35.7964 21.235 36.9981 20.2782 38.3922 20.2782C39.1664 20.2767 39.91 20.5764 40.4582 21.1104L40.4597 21.1089Z" stroke="white"/>
</svg>
