<svg width="49" height="49" viewBox="0 0 49 49" fill="none" xmlns="http://www.w3.org/2000/svg">
<rect x="0.806641" y="0.444458" width="47.818" height="48" rx="13" fill="#D22828"/>
<path d="M7.67745 13.8243C7.20321 13.8243 6.8152 13.4603 6.80657 13.0155V7.928C6.80657 7.47505 7.19459 7.11108 7.67745 7.11108H13.101C13.5753 7.11108 13.9633 7.47505 13.9633 7.928V9.69932H34.8299V7.928C34.8299 7.48314 35.2179 7.11917 35.6921 7.11108H41.1157C41.5899 7.11108 41.9779 7.47505 41.9866 7.928V13.0155C41.9866 13.4603 41.5986 13.8243 41.1157 13.8243H39.2274V33.3978H41.1157C41.5899 33.3978 41.9779 33.7618 41.9866 34.2067V39.2942C41.9866 39.739 41.5986 40.103 41.1157 40.1111H35.6921C35.2179 40.1111 34.8299 39.7471 34.8299 39.2942V37.5228H13.9633V39.2942C13.9633 39.739 13.5753 40.103 13.101 40.1111H7.67745C7.20321 40.1111 6.8152 39.7471 6.80657 39.2942V34.2067C6.80657 33.7618 7.19459 33.3978 7.67745 33.3978H9.56579V13.8243H7.67745ZM40.2621 12.2067V8.72873H36.5544V12.2067H40.2621ZM36.5544 38.4934H40.2621V35.0155H36.5544V38.4934ZM13.9633 34.2067V35.9052H34.8299V34.2067C34.8299 33.7618 35.2179 33.3978 35.6921 33.3978H37.5028V13.8243H35.6921C35.2179 13.8243 34.8299 13.4603 34.8299 13.0155V11.317H13.9633V13.0155C13.9633 13.4603 13.5753 13.8243 13.101 13.8243H11.2903V33.3978H13.101C13.5753 33.3978 13.9633 33.7618 13.9633 34.2067ZM8.53108 35.0155V38.4934H12.2388V35.0155H8.53108ZM12.2388 12.2067V8.72873H8.53108V12.2067H12.2388Z" fill="white" stroke="white"/>
</svg>
