<svg width="38" height="37" viewBox="0 0 38 37" fill="none" xmlns="http://www.w3.org/2000/svg">
<ellipse cx="18.9222" cy="18.1111" rx="18.3133" ry="18" fill="#F2F2F2"/>
<g clip-path="url(#clip0_2705_2868)">
<path d="M25.536 11.1111C25.457 11.1111 25.3791 11.1291 25.3084 11.1638L21.4535 13.0588L17.0945 11.1543C17.0874 11.1513 17.0792 11.1508 17.0716 11.1478C17.052 11.1406 17.0319 11.1346 17.0116 11.1298C16.9913 11.1245 16.9708 11.1203 16.95 11.1173C16.9087 11.114 16.8672 11.114 16.8259 11.1173C16.8052 11.1203 16.7846 11.1245 16.7644 11.1298C16.744 11.1346 16.724 11.1406 16.7043 11.1478C16.6967 11.1508 16.6886 11.1513 16.6815 11.1543L12.1032 13.1543C11.9194 13.2345 11.801 13.4136 11.801 13.6113V24.6111C11.8011 24.7803 11.8882 24.9379 12.0325 25.0301C12.1768 25.1225 12.3588 25.1367 12.5162 25.0681L16.8879 23.1581L21.2597 25.0681C21.2673 25.0711 21.2754 25.0681 21.2831 25.0726C21.4062 25.1268 21.5476 25.1237 21.6681 25.0641C21.6763 25.0606 21.6854 25.0641 21.6936 25.0586L25.7631 23.0586C25.9356 22.9739 26.0445 22.8006 26.0444 22.6111V11.6113C26.0446 11.3352 25.8169 11.1112 25.536 11.1111ZM16.3793 22.2861L12.8184 23.8416V13.9363L16.3793 12.3808V22.2861ZM20.9575 23.8416L17.3967 22.2861V12.3808L20.9575 13.9363V23.8416ZM25.0271 22.3021L21.9749 23.8021V13.9203L25.0271 12.4203V22.3021V22.3021Z" fill="#9CA0B0"/>
</g>
<defs>
<clipPath id="clip0_2705_2868">
<rect width="14.2437" height="14" fill="white" transform="translate(11.8003 11.1111)"/>
</clipPath>
</defs>
</svg>
